<svg width="78" height="51" viewBox="0 0 78 51" fill="none" xmlns="http://www.w3.org/2000/svg">
<rect y="0.00268555" width="77.1" height="50" rx="3" fill="#F9F9F9"/>
<path fill-rule="evenodd" clip-rule="evenodd" d="M28.6014 25.3166C28.6014 25.0017 28.7265 24.6996 28.9492 24.4769C29.1719 24.2542 29.474 24.1291 29.7889 24.1291L43.5473 24.1291L38.4481 19.0324C38.3377 18.922 38.2502 18.7909 38.1904 18.6466C38.1306 18.5024 38.0999 18.3478 38.0999 18.1916C38.0999 18.0355 38.1306 17.8809 38.1904 17.7366C38.2502 17.5923 38.3377 17.4613 38.4481 17.3509C38.5586 17.2405 38.6896 17.1529 38.8339 17.0931C38.9781 17.0334 39.1328 17.0026 39.2889 17.0026C39.445 17.0026 39.5996 17.0334 39.7439 17.0931C39.8882 17.1529 40.0192 17.2405 40.1296 17.3509L47.2546 24.4759C47.3652 24.5862 47.453 24.7172 47.5128 24.8615C47.5727 25.0058 47.6035 25.1604 47.6035 25.3166C47.6035 25.4728 47.5727 25.6275 47.5128 25.7717C47.453 25.916 47.3652 26.0471 47.2546 26.1574L40.1296 33.2824C39.9067 33.5053 39.6042 33.6306 39.2889 33.6306C38.9736 33.6306 38.6711 33.5053 38.4481 33.2824C38.2252 33.0594 38.0999 32.757 38.0999 32.4416C38.0999 32.1263 38.2252 31.8238 38.4481 31.6009L43.5473 26.5041L29.7889 26.5041C29.474 26.5041 29.1719 26.379 28.9492 26.1563C28.7265 25.9336 28.6014 25.6316 28.6014 25.3166Z" fill="black"/>
</svg>
