<svg width="18" height="18" viewBox="0 0 18 18" fill="none" xmlns="http://www.w3.org/2000/svg">
<path d="M9.02295 0C8.09585 0 7.18957 0.277811 6.41871 0.798302C5.64786 1.31879 5.04705 2.05859 4.69226 2.92413C4.33748 3.78968 4.24465 4.7421 4.42552 5.66095C4.60639 6.57981 5.05283 7.42384 5.70839 8.0863C6.36395 8.74875 7.19918 9.1999 8.10846 9.38267C9.01775 9.56544 9.96025 9.47163 10.8168 9.11311C11.6733 8.75459 12.4054 8.14746 12.9205 7.36849C13.4355 6.58952 13.7104 5.6737 13.7104 4.73684C13.7104 3.48055 13.2166 2.27572 12.3375 1.38739C11.4584 0.499059 10.2662 0 9.02295 0ZM9.02295 7.57895C8.46669 7.57895 7.92292 7.41226 7.46041 7.09997C6.99789 6.78767 6.63741 6.3438 6.42454 5.82447C6.21167 5.30514 6.15597 4.73369 6.26449 4.18237C6.37301 3.63106 6.64088 3.12465 7.03421 2.72717C7.42755 2.32969 7.92869 2.05901 8.47426 1.94935C9.01983 1.83968 9.58533 1.89597 10.0992 2.11108C10.6132 2.32619 11.0524 2.69047 11.3615 3.15785C11.6705 3.62523 11.8354 4.17473 11.8354 4.73684C11.8354 5.49062 11.5391 6.21352 11.0117 6.74651C10.4842 7.27951 9.76887 7.57895 9.02295 7.57895ZM17.4604 18V17.0526C17.4604 15.2938 16.769 13.6071 15.5383 12.3634C14.3076 11.1197 12.6384 10.4211 10.8979 10.4211H7.14795C5.40747 10.4211 3.73827 11.1197 2.50756 12.3634C1.27685 13.6071 0.585449 15.2938 0.585449 17.0526V18H2.46045V17.0526C2.46045 15.7963 2.95431 14.5915 3.83339 13.7032C4.71246 12.8148 5.90475 12.3158 7.14795 12.3158H10.8979C12.1412 12.3158 13.3334 12.8148 14.2125 13.7032C15.0916 14.5915 15.5854 15.7963 15.5854 17.0526V18H17.4604Z" fill="#DEDEDE"/>
</svg>
