<svg width="20" height="14" viewBox="0 0 20 14" fill="none" xmlns="http://www.w3.org/2000/svg">
<path d="M19.3813 6.95703C19.2528 7.12781 19.0669 7.36732 18.8295 7.65323C18.3346 8.24914 17.6192 9.0428 16.737 9.83501C14.9556 11.4346 12.5734 12.957 10 12.957C7.42659 12.957 5.04436 11.4346 3.263 9.83501C2.38077 9.0428 1.66536 8.24914 1.17051 7.65323C0.933091 7.36732 0.747173 7.12781 0.618709 6.95703C0.747173 6.78625 0.933091 6.54675 1.17051 6.26083C1.66536 5.66493 2.38077 4.87126 3.263 4.07905C5.04436 2.47945 7.42659 0.957031 10 0.957031C12.5734 0.957031 14.9556 2.47945 16.737 4.07905C17.6192 4.87126 18.3346 5.66493 18.8295 6.26083C19.0669 6.54674 19.2528 6.78625 19.3813 6.95703ZM10 10.957C12.2091 10.957 14 9.16617 14 6.95703C14 4.74789 12.2091 2.95703 10 2.95703C7.79086 2.95703 6 4.74789 6 6.95703C6 9.16617 7.79086 10.957 10 10.957Z" fill="#A0A0A0" stroke="#A0A0A0"/>
</svg>
