<svg width="20" height="15" viewBox="0 0 20 15" fill="none" xmlns="http://www.w3.org/2000/svg">
<path d="M1.17051 8.65323C0.933091 8.36732 0.747173 8.12781 0.618709 7.95703C0.747173 7.78625 0.933091 7.54675 1.17051 7.26083C1.66536 6.66493 2.38077 5.87126 3.263 5.07905C5.04436 3.47945 7.42659 1.95703 10 1.95703C12.5734 1.95703 14.9556 3.47945 16.737 5.07905C17.6192 5.87126 18.3346 6.66493 18.8295 7.26083C19.0669 7.54674 19.2528 7.78625 19.3813 7.95703C19.2528 8.12781 19.0669 8.36732 18.8295 8.65323C18.3346 9.24914 17.6192 10.0428 16.737 10.835C14.9556 12.4346 12.5734 13.957 10 13.957C7.42659 13.957 5.04436 12.4346 3.263 10.835C2.38077 10.0428 1.66536 9.24914 1.17051 8.65323ZM10 11.957C12.2091 11.957 14 10.1662 14 7.95703C14 5.74789 12.2091 3.95703 10 3.95703C7.79086 3.95703 6 5.74789 6 7.95703C6 10.1662 7.79086 11.957 10 11.957Z" fill="#A0A0A0" stroke="#A0A0A0"/>
<line x1="3.43705" y1="1.30026" x2="16.2402" y2="14.1034" stroke="#A0A0A0"/>
<line x1="4.19633" y1="0.646447" x2="16.9995" y2="13.4496" stroke="#FAFAF8"/>
</svg>
